<mxfile host="65bd71144e">
    <diagram id="IbmT0bzVlH76FRg3UiBn" name="Page-1">
        <mxGraphModel dx="1163" dy="779" grid="0" gridSize="10" guides="1" tooltips="1" connect="1" arrows="1" fold="1" page="1" pageScale="1" pageWidth="1654" pageHeight="1169" background="#ffffff" math="0" shadow="0">
            <root>
                <mxCell id="0"/>
                <mxCell id="1" parent="0"/>
                <mxCell id="2" value="" style="shape=mxgraph.cisco.switches.workgroup_switch;sketch=0;html=1;pointerEvents=1;dashed=0;fillColor=#036897;strokeColor=#ffffff;strokeWidth=2;verticalLabelPosition=bottom;verticalAlign=top;align=center;outlineConnect=0;" vertex="1" parent="1">
                    <mxGeometry x="647" y="342" width="101" height="50" as="geometry"/>
                </mxCell>
                <mxCell id="3" value="&lt;font color=&quot;#000000&quot;&gt;ST1&lt;br&gt;192.168.0.101/24&lt;br&gt;&lt;/font&gt;" style="shape=mxgraph.cisco.computers_and_peripherals.pc;sketch=0;html=1;pointerEvents=1;dashed=0;fillColor=#036897;strokeColor=#ffffff;strokeWidth=2;verticalLabelPosition=bottom;verticalAlign=top;align=center;outlineConnect=0;" vertex="1" parent="1">
                    <mxGeometry x="414" y="447" width="78" height="70" as="geometry"/>
                </mxCell>
                <mxCell id="4" value="&lt;font color=&quot;#000000&quot;&gt;ST2&lt;br&gt;192.168.0.102/24&lt;br&gt;&lt;/font&gt;" style="shape=mxgraph.cisco.computers_and_peripherals.pc;sketch=0;html=1;pointerEvents=1;dashed=0;fillColor=#036897;strokeColor=#ffffff;strokeWidth=2;verticalLabelPosition=bottom;verticalAlign=top;align=center;outlineConnect=0;" vertex="1" parent="1">
                    <mxGeometry x="406" y="236" width="78" height="70" as="geometry"/>
                </mxCell>
                <mxCell id="5" value="&lt;font color=&quot;#000000&quot;&gt;SRV1&lt;br&gt;192.168.0.1/24&lt;br&gt;&lt;/font&gt;" style="shape=mxgraph.cisco.servers.standard_host;sketch=0;html=1;pointerEvents=1;dashed=0;fillColor=#036897;strokeColor=#ffffff;strokeWidth=2;verticalLabelPosition=bottom;verticalAlign=top;align=center;outlineConnect=0;" vertex="1" parent="1">
                    <mxGeometry x="936" y="336" width="43" height="62" as="geometry"/>
                </mxCell>
                <mxCell id="6" value="" style="endArrow=none;html=1;fontColor=#000000;strokeColor=#000000;" edge="1" parent="1" source="4" target="2">
                    <mxGeometry width="50" height="50" relative="1" as="geometry">
                        <mxPoint x="594" y="277" as="sourcePoint"/>
                        <mxPoint x="644" y="227" as="targetPoint"/>
                    </mxGeometry>
                </mxCell>
                <mxCell id="7" value="" style="endArrow=none;html=1;strokeColor=#000000;fontColor=#000000;" edge="1" parent="1" source="3" target="2">
                    <mxGeometry width="50" height="50" relative="1" as="geometry">
                        <mxPoint x="691" y="581" as="sourcePoint"/>
                        <mxPoint x="741" y="531" as="targetPoint"/>
                    </mxGeometry>
                </mxCell>
                <mxCell id="8" value="" style="endArrow=none;html=1;strokeColor=#000000;fontColor=#000000;" edge="1" parent="1" source="2" target="5">
                    <mxGeometry width="50" height="50" relative="1" as="geometry">
                        <mxPoint x="853" y="511" as="sourcePoint"/>
                        <mxPoint x="903" y="461" as="targetPoint"/>
                    </mxGeometry>
                </mxCell>
                <mxCell id="9" value="192.168.0.0/24" style="text;html=1;strokeColor=none;fillColor=none;align=center;verticalAlign=middle;whiteSpace=wrap;rounded=0;fontColor=#000000;fontStyle=1;fontSize=20;" vertex="1" parent="1">
                    <mxGeometry x="837" y="66" width="124" height="30" as="geometry"/>
                </mxCell>
            </root>
        </mxGraphModel>
    </diagram>
</mxfile>